<?xml version="1.0" encoding="UTF-8" standalone="no"?>
<!DOCTYPE svg PUBLIC "-//W3C//DTD SVG 1.1//EN" "http://www.w3.org/Graphics/SVG/1.1/DTD/svg11.dtd">
<!-- Generiert durch Microsoft Visio, SVG Export mqtt server health logo.svg Page-1 -->
<svg xmlns="http://www.w3.org/2000/svg" xmlns:xlink="http://www.w3.org/1999/xlink" xmlns:ev="http://www.w3.org/2001/xml-events"
		xmlns:v="http://schemas.microsoft.com/visio/2003/SVGExtensions/" width="14.6812in" height="6.12435in"
		viewBox="0 0 1057.05 440.953" xml:space="preserve" color-interpolation-filters="sRGB" class="st10">
	<v:documentProperties v:langID="1031" v:metric="true" v:viewMarkup="false">
		<v:userDefs>
			<v:ud v:nameU="msvNoAutoConnect" v:val="VT0(1):26"/>
		</v:userDefs>
	</v:documentProperties>

	<style type="text/css">
	<![CDATA[
		.st1 {fill:#3f3f3f;stroke:#000000;stroke-linecap:round;stroke-linejoin:round;stroke-width:3}
		.st2 {stroke:#000000;stroke-linecap:round;stroke-linejoin:round;stroke-width:3}
		.st3 {fill:#ffc000;stroke:none;stroke-linecap:butt;stroke-width:0.844138}
		.st4 {fill:#ffc000;stroke:none;stroke-linecap:butt;stroke-width:0.841813}
		.st5 {fill:#3f3f3f;stroke:none;stroke-linecap:butt;stroke-width:1}
		.st6 {fill:#ffc000;stroke:none;stroke-linecap:butt;stroke-width:1}
		.st7 {fill:none;stroke:none;stroke-linecap:round;stroke-linejoin:round;stroke-width:0.75}
		.st8 {fill:#3f3f3f;font-family:Bread Coffee Demo;font-size:6.66666em}
		.st9 {fill:#000000;stroke:none;stroke-linecap:butt;stroke-width:1}
		.st10 {fill:none;fill-rule:evenodd;font-size:12px;overflow:visible;stroke-linecap:square;stroke-miterlimit:3}
	]]>
	</style>

	<g v:mID="0" v:index="1" v:groupContext="foregroundPage">
		<title>Zeichenblatt-1</title>
		<v:pageProperties v:drawingScale="0.0393701" v:pageScale="0.0393701" v:drawingUnits="24" v:shadowOffsetX="8.50394"
				v:shadowOffsetY="-8.50394"/>
		<g id="group495-1" transform="translate(21.717,-28.3465)" v:mID="495" v:groupContext="group">
			<title>Tabelle.495</title>
			<g id="shape1-2" v:mID="1" v:groupContext="shape" transform="translate(7.99361E-15,-5.99834)">
				<title>Tabelle.1</title>
				<rect x="0" y="256.701" width="141.732" height="184.252" class="st1"/>
			</g>
			<g id="shape2-4" v:mID="2" v:groupContext="shape" transform="translate(311.801,123.154) rotate(45)">
				<title>Tabelle.2</title>
				<path d="M0 440.95 L8.48 440.95" class="st2"/>
			</g>
			<g id="shape3-7" v:mID="3" v:groupContext="shape" transform="translate(5.99832,-1.7967E-05)">
				<title>Tabelle.3</title>
				<path d="M0 440.95 L18.51 440.95 L24.51 434.95" class="st2"/>
			</g>
			<g id="shape4-10" v:mID="4" v:groupContext="shape" transform="translate(423.027,123.154) rotate(45)">
				<title>Tabelle.4</title>
				<path d="M0 440.95 L8.48 440.95" class="st2"/>
			</g>
			<g id="shape5-13" v:mID="5" v:groupContext="shape" transform="translate(117.224,-1.51548E-07)">
				<title>Tabelle.5</title>
				<path d="M0 440.95 L18.51 440.95 L24.51 434.95" class="st2"/>
			</g>
			<g id="shape7-16" v:mID="7" v:groupContext="shape" transform="translate(85.0394,-108.046)">
				<title>Tabelle.7</title>
				<rect x="0" y="367.252" width="48.189" height="73.7008" class="st1"/>
			</g>
			<g id="shape8-18" v:mID="8" v:groupContext="shape" transform="translate(90.7087,-171.825)">
				<title>Tabelle.8</title>
				<path d="M0 440.95 L14.17 440.95" class="st2"/>
			</g>
			<g id="shape11-21" v:mID="11" v:groupContext="shape" transform="translate(113.386,-171.825)">
				<title>Tabelle.11</title>
				<path d="M0 440.95 L14.17 440.95" class="st2"/>
			</g>
			<g id="shape12-24" v:mID="12" v:groupContext="shape" transform="translate(90.7087,-159.069)">
				<title>Tabelle.12</title>
				<path d="M0 440.95 L14.17 440.95" class="st2"/>
			</g>
			<g id="shape13-27" v:mID="13" v:groupContext="shape" transform="translate(90.7087,-146.313)">
				<title>Tabelle.13</title>
				<path d="M0 440.95 L14.17 440.95" class="st2"/>
			</g>
			<g id="shape14-30" v:mID="14" v:groupContext="shape" transform="translate(113.386,-159.069)">
				<title>Tabelle.14</title>
				<path d="M0 440.95 L14.17 440.95" class="st2"/>
			</g>
			<g id="shape15-33" v:mID="15" v:groupContext="shape" transform="translate(113.386,-146.313)">
				<title>Tabelle.15</title>
				<path d="M0 440.95 L14.17 440.95" class="st2"/>
			</g>
			<g id="shape16-36" v:mID="16" v:groupContext="shape" transform="translate(90.7087,-133.557)">
				<title>Tabelle.16</title>
				<path d="M0 440.95 L14.17 440.95" class="st2"/>
			</g>
			<g id="shape17-39" v:mID="17" v:groupContext="shape" transform="translate(113.386,-133.557)">
				<title>Tabelle.17</title>
				<path d="M0 440.95 L14.17 440.95" class="st2"/>
			</g>
			<g id="shape18-42" v:mID="18" v:groupContext="shape" transform="translate(90.7087,-120.801)">
				<title>Tabelle.18</title>
				<path d="M0 440.95 L14.17 440.95" class="st2"/>
			</g>
			<g id="shape19-45" v:mID="19" v:groupContext="shape" transform="translate(113.386,-120.801)">
				<title>Tabelle.19</title>
				<path d="M0 440.95 L14.17 440.95" class="st2"/>
			</g>
			<g id="shape20-48" v:mID="20" v:groupContext="shape" transform="translate(85.0394,-88.203)">
				<title>Tabelle.20</title>
				<path d="M0 440.95 L48.19 440.95" class="st2"/>
			</g>
			<g id="shape21-51" v:mID="21" v:groupContext="shape" transform="translate(-355.914,364.089) rotate(-90)">
				<title>Tabelle.21</title>
				<path d="M0 440.95 L11.34 440.95" class="st2"/>
			</g>
			<g id="shape22-54" v:mID="22" v:groupContext="shape" transform="translate(85.0394,-68.3605)">
				<title>Tabelle.22</title>
				<path d="M0 440.95 L48.19 440.95" class="st2"/>
			</g>
			<g id="shape23-57" v:mID="23" v:groupContext="shape" transform="translate(-355.914,383.931) rotate(-90)">
				<title>Tabelle.23</title>
				<path d="M0 440.95 L11.34 440.95" class="st2"/>
			</g>
			<g id="shape25-60" v:mID="25" v:groupContext="shape" transform="translate(85.0394,-48.518)">
				<title>Tabelle.25</title>
				<path d="M0 440.95 L48.19 440.95" class="st2"/>
			</g>
			<g id="shape26-63" v:mID="26" v:groupContext="shape" transform="translate(-355.914,403.774) rotate(-90)">
				<title>Tabelle.26</title>
				<path d="M0 440.95 L11.34 440.95" class="st2"/>
			</g>
			<g id="shape28-66" v:mID="28" v:groupContext="shape" transform="translate(8.50393,-108.046)">
				<title>Tabelle.28</title>
				<rect x="0" y="370.087" width="25.5118" height="70.8661" class="st1"/>
			</g>
			<g id="shape52-68" v:mID="52" v:groupContext="shape" transform="translate(16.7244,-113.927)">
				<title>Tabelle.52</title>
				<ellipse cx="4.03937" cy="436.914" rx="4.03937" ry="4.03937" class="st1"/>
			</g>
			<g id="shape53-70" v:mID="53" v:groupContext="shape" transform="translate(45.3543,-108.046)">
				<title>Tabelle.53</title>
				<rect x="0" y="370.087" width="25.5118" height="70.8661" class="st1"/>
			</g>
			<g id="shape54-72" v:mID="54" v:groupContext="shape" transform="translate(53.5748,-114.14)">
				<title>Tabelle.54</title>
				<ellipse cx="4.03937" cy="436.914" rx="4.03937" ry="4.03937" class="st1"/>
			</g>
			<g id="shape126-74" v:mID="126" v:groupContext="shape" transform="translate(17.0079,-11.1007)">
				<title>Tabelle.126</title>
				<rect x="0" y="434.717" width="13.3228" height="6.23622" class="st1"/>
			</g>
			<g id="shape127-76" v:mID="127" v:groupContext="shape" transform="translate(35.4331,-11.1007)">
				<title>Tabelle.127</title>
				<rect x="0" y="434.717" width="13.3228" height="6.23622" class="st1"/>
			</g>
		</g>
		<g id="group496-78" transform="translate(207.239,-90.78) rotate(20.6)" v:mID="496" v:groupContext="group">
			<title>Tabelle.496</title>
			<g id="shape457-79" v:mID="457" v:groupContext="shape" transform="translate(218.802,25.6206) rotate(21.39)">
				<title>Tabelle.457</title>
				<ellipse cx="10.9569" cy="430.021" rx="10.9569" ry="10.9316" class="st3"/>
			</g>
			<g id="shape458-81" v:mID="458" v:groupContext="shape" transform="translate(251.039,22.6908) rotate(21.39)">
				<title>Tabelle.458</title>
				<ellipse cx="12.2569" cy="428.721" rx="12.2569" ry="12.2316" class="st3"/>
			</g>
			<g id="shape459-83" v:mID="459" v:groupContext="shape" transform="translate(291.713,8.34591) rotate(21.39)">
				<title>Tabelle.459</title>
				<ellipse cx="14.8737" cy="426.122" rx="14.8737" ry="14.8315" class="st3"/>
			</g>
			<g id="shape460-85" v:mID="460" v:groupContext="shape" transform="translate(325.378,-22.0279) rotate(21.39)">
				<title>Tabelle.460</title>
				<ellipse cx="16.1737" cy="424.822" rx="16.1737" ry="16.1315" class="st3"/>
			</g>
			<g id="shape461-87" v:mID="461" v:groupContext="shape" transform="translate(321.816,-74.1709) rotate(21.39)">
				<title>Tabelle.461</title>
				<ellipse cx="18.7821" cy="422.213" rx="18.7821" ry="18.7399" class="st3"/>
			</g>
			<g id="shape462-89" v:mID="462" v:groupContext="shape" transform="translate(324.313,-265.864) rotate(21.39)">
				<title>Tabelle.462</title>
				<ellipse cx="11.8517" cy="429.135" rx="11.8517" ry="11.8179" class="st3"/>
			</g>
			<g id="shape463-91" v:mID="463" v:groupContext="shape" transform="translate(292.455,-227.669) rotate(21.39)">
				<title>Tabelle.463</title>
				<ellipse cx="14.8906" cy="426.105" rx="14.8906" ry="14.8484" class="st3"/>
			</g>
			<g id="shape464-93" v:mID="464" v:groupContext="shape" transform="translate(283.242,-184.707) rotate(21.39)">
				<title>Tabelle.464</title>
				<ellipse cx="16.41" cy="424.585" rx="16.41" ry="16.3678" class="st3"/>
			</g>
			<g id="shape465-95" v:mID="465" v:groupContext="shape" transform="translate(297.977,-133.347) rotate(21.39)">
				<title>Tabelle.465</title>
				<ellipse cx="19.4489" cy="421.555" rx="19.4489" ry="19.3983" class="st3"/>
			</g>
			<g id="shape466-97" v:mID="466" v:groupContext="shape" transform="translate(180.29,0.217879) rotate(21.39)">
				<title>Tabelle.466</title>
				<ellipse cx="10.1381" cy="430.832" rx="10.1381" ry="10.1212" class="st3"/>
			</g>
			<g id="shape467-99" v:mID="467" v:groupContext="shape" transform="translate(214.498,-2.92817) rotate(21.39)">
				<title>Tabelle.467</title>
				<ellipse cx="11.3452" cy="429.633" rx="11.3452" ry="11.3199" class="st3"/>
			</g>
			<g id="shape468-101" v:mID="468" v:groupContext="shape" transform="translate(247.525,-16.6931) rotate(21.39)">
				<title>Tabelle.468</title>
				<ellipse cx="13.7679" cy="427.219" rx="13.7679" ry="13.7341" class="st3"/>
			</g>
			<g id="shape469-103" v:mID="469" v:groupContext="shape" transform="translate(277.608,-47.6775) rotate(21.39)">
				<title>Tabelle.469</title>
				<ellipse cx="14.975" cy="426.02" rx="14.975" ry="14.9328" class="st3"/>
			</g>
			<g id="shape470-105" v:mID="470" v:groupContext="shape" transform="translate(268.16,-95.2017) rotate(21.39)">
				<title>Tabelle.470</title>
				<ellipse cx="17.3892" cy="423.606" rx="17.3892" ry="17.347" class="st3"/>
			</g>
			<g id="shape471-107" v:mID="471" v:groupContext="shape" transform="translate(279.395,-261.076) rotate(21.39)">
				<title>Tabelle.471</title>
				<ellipse cx="10.5939" cy="430.384" rx="10.5939" ry="10.5686" class="st3"/>
			</g>
			<g id="shape472-109" v:mID="472" v:groupContext="shape" transform="translate(243.41,-236.547) rotate(21.2914)">
				<title>Tabelle.472</title>
				<ellipse cx="13.2754" cy="427.711" rx="13.2754" ry="13.2417" class="st4"/>
			</g>
			<g id="shape473-111" v:mID="473" v:groupContext="shape" transform="translate(240.867,-191.26) rotate(21.39)">
				<title>Tabelle.473</title>
				<ellipse cx="14.6711" cy="426.316" rx="14.6711" ry="14.6374" class="st3"/>
			</g>
			<g id="shape474-113" v:mID="474" v:groupContext="shape" transform="translate(250.69,-143.587) rotate(21.39)">
				<title>Tabelle.474</title>
				<ellipse cx="17.3892" cy="423.606" rx="17.3892" ry="17.347" class="st3"/>
			</g>
			<g id="shape475-115" v:mID="475" v:groupContext="shape" transform="translate(158.371,-28.7723) rotate(21.39)">
				<title>Tabelle.475</title>
				<ellipse cx="8.29788" cy="432.672" rx="8.29788" ry="8.28099" class="st3"/>
			</g>
			<g id="shape476-117" v:mID="476" v:groupContext="shape" transform="translate(190.323,-27.5683) rotate(21.39)">
				<title>Tabelle.476</title>
				<ellipse cx="9.29396" cy="431.684" rx="9.29396" ry="9.26863" class="st3"/>
			</g>
			<g id="shape477-119" v:mID="477" v:groupContext="shape" transform="translate(214.268,-40.6992) rotate(21.39)">
				<title>Tabelle.477</title>
				<ellipse cx="11.2692" cy="429.709" rx="11.2692" ry="11.2439" class="st3"/>
			</g>
			<g id="shape478-121" v:mID="478" v:groupContext="shape" transform="translate(238.741,-67.9703) rotate(21.2914)">
				<title>Tabelle.478</title>
				<ellipse cx="12.2231" cy="428.764" rx="12.2231" ry="12.1895" class="st4"/>
			</g>
			<g id="shape479-123" v:mID="479" v:groupContext="shape" transform="translate(230.249,-105.404) rotate(21.39)">
				<title>Tabelle.479</title>
				<ellipse cx="14.2322" cy="426.755" rx="14.2322" ry="14.1984" class="st3"/>
			</g>
			<g id="shape480-125" v:mID="480" v:groupContext="shape" transform="translate(213.885,-215.348) rotate(21.39)">
				<title>Tabelle.480</title>
				<ellipse cx="10.8978" cy="430.081" rx="10.8978" ry="10.8725" class="st3"/>
			</g>
			<g id="shape481-127" v:mID="481" v:groupContext="shape" transform="translate(206.838,-181.121) rotate(21.39)">
				<title>Tabelle.481</title>
				<ellipse cx="12.0121" cy="428.975" rx="12.0121" ry="11.9783" class="st3"/>
			</g>
			<g id="shape482-129" v:mID="482" v:groupContext="shape" transform="translate(214.1,-142.216) rotate(21.39)">
				<title>Tabelle.482</title>
				<ellipse cx="14.2322" cy="426.755" rx="14.2322" ry="14.1984" class="st3"/>
			</g>
			<g id="shape483-131" v:mID="483" v:groupContext="shape" transform="translate(331.787,-218.076) rotate(21.39)">
				<title>Tabelle.483</title>
				<ellipse cx="8.55112" cy="432.427" rx="8.55112" ry="8.52579" class="st3"/>
			</g>
		</g>
		<g id="group582-133" transform="translate(414.154,-224.002) rotate(15)" v:mID="582" v:groupContext="group">
			<title>Tabelle.582</title>
			<g id="shape537-134" v:mID="537" v:groupContext="shape" transform="translate(2.95763E-13,-104.402)">
				<title>Tabelle.537</title>
				<path d="M54.79 440.95 C56.75 437.56 59.25 434.17 62.28 431.14 C68.35 425.07 75.49 421.14 82.99 419.36 C67.99 397.76
							 39.62 366.35 18.02 399.37 C0 426.68 30.16 437.03 54.79 440.95 L54.79 440.95 Z" class="st5"/>
			</g>
			<g id="shape538-136" v:mID="538" v:groupContext="shape" transform="translate(104.402,-3.97904E-13)">
				<title>Tabelle.538</title>
				<path d="M21.6 357.97 C19.81 365.46 15.88 372.6 9.82 378.67 C6.78 381.7 3.57 384.2 0 386.16 C3.93 410.79 14.1 440.95
							 41.58 422.93 C74.6 401.33 43.19 372.96 21.59 357.97 L21.6 357.97 Z" class="st5"/>
			</g>
			<g id="shape539-138" v:mID="539" v:groupContext="shape" transform="translate(43.368,-43.3667)">
				<title>Tabelle.539</title>
				<path d="M133.31 350.65 C126.71 344.05 116.54 342.26 107.97 346.19 L101.9 349.04 C100.83 346.9 99.4 344.94 97.62
							 343.15 C95.83 341.37 93.87 340.12 91.73 338.87 L94.59 332.8 C98.69 324.24 96.91 314.06 90.12 307.46
							 C87.63 304.96 83.7 304.96 81.38 307.46 C79.06 309.96 78.88 313.88 81.38 316.2 C84.41 319.24 85.13 323.7
							 83.34 327.45 L79.42 335.84 C73.35 336.01 67.46 338.33 62.82 342.97 C56.39 349.4 54.43 358.5 56.57 366.89
							 C46.4 364.21 34.09 367.42 25.16 376.35 C19.99 381.52 16.77 387.59 15.53 394.02 C10.35 394.55 5.18 396.69
							 0 400.26 L40.69 440.95 C44.26 435.78 46.4 430.78 46.94 425.43 C53.18 424.18 59.43 420.97 64.61 415.79
							 C73.53 406.87 76.74 394.55 73.89 384.38 C82.1 386.7 91.2 384.56 97.8 378.13 C102.44 373.49 104.76 367.6
							 104.94 361.54 L113.33 357.61 C117.07 355.83 121.71 356.54 124.57 359.57 C127.07 362.07 130.99 362.07
							 133.32 359.57 C135.63 357.07 135.63 353.15 133.31 350.65 L133.31 350.65 Z" class="st5"/>
			</g>
			<g id="shape540-140" v:mID="540" v:groupContext="shape" transform="translate(26.4121,-26.4127)">
				<title>Tabelle.540</title>
				<path d="M3.39 394.91 C2.32 395.98 1.07 397.41 0 398.66 L42.3 440.95 C43.55 439.88 44.8 438.81 46.04 437.56 C48.19
							 435.42 50.33 433.1 52.29 430.96 L9.99 388.84 C7.67 390.62 5.53 392.77 3.39 394.91 L3.39 394.91 Z"
						class="st6"/>
			</g>
			<g id="shape541-142" v:mID="541" v:groupContext="shape" transform="translate(14.6336,-14.4561)">
				<title>Tabelle.541</title>
				<path d="M0 407.4 L33.55 440.95 C38.19 439.17 42.65 436.85 46.76 434.35 L6.6 394.2 C4.11 398.3 1.78 402.76 0 407.4
							 L0 407.4 Z" class="st6"/>
			</g>
			<g id="shape542-144" v:mID="542" v:groupContext="shape" transform="translate(7.85189,-7.85252)">
				<title>Tabelle.542</title>
				<path d="M4.28 436.67 C8.57 440.95 19.1 440.6 30.87 437.38 L3.57 410.08 C0.18 421.86 0 432.56 4.28 436.67 L4.28 436.67
							 Z" class="st5"/>
			</g>
		</g>
		<g id="shape583-146" v:mID="583" v:groupContext="shape" transform="translate(486.499,-278.171) rotate(21.39)">
			<title>Tabelle.583</title>
			<ellipse cx="8.29788" cy="432.672" rx="8.29788" ry="8.28099" class="st3"/>
		</g>
		<g id="shape584-148" v:mID="584" v:groupContext="shape" transform="translate(215.259,-31.5743)">
			<title>Tabelle.584</title>
			<desc>MQTT Server Health</desc>
			<v:textBlock v:margins="rect(4,4,4,4)" v:tabSpace="42.5197"/>
			<v:textRect cx="412.441" cy="395.795" width="824.89" height="90.3155"/>
			<rect x="0" y="350.637" width="824.882" height="90.3155" class="st7"/>
			<text x="28.59" y="419.8" class="st8" v:langID="1031"><v:paragraph v:horizAlign="1"/><v:tabList/>MQTT Server Health</text>		</g>
		<g id="shape585-151" v:mID="585" v:groupContext="shape" transform="translate(34.8661,-62.3622)">
			<title>Tabelle.585</title>
			<path d="M5.11 425.03 C5.14 425.09 5.19 425.13 5.22 425.18 C12.59 437.03 30.14 440.95 41.89 432.88 L41.89 432.88 C42.02
						 432.83 42.15 432.75 42.26 432.65 L42.37 432.58 L42.44 432.53 L42.44 432.53 C48.24 428.57 52.24 422.49 53.59
						 415.6 C53.59 415.56 53.61 415.52 53.61 415.47 C54.88 408.77 53.52 401.83 49.82 396.1 C49.75 395.94 49.66
						 395.8 49.55 395.67 L49.51 395.61 C49.49 395.58 49.47 395.55 49.44 395.52 C45.49 389.73 39.42 385.72 32.53
						 384.38 C32.48 384.38 32.44 384.36 32.39 384.35 L32.39 384.35 C25.69 383.08 18.75 384.44 13.02 388.15 C12.86
						 388.21 12.71 388.3 12.58 388.41 L12.54 388.44 C12.5 388.47 12.47 388.49 12.44 388.52 L12.44 388.52 C6.64
						 392.48 2.64 398.55 1.29 405.44 C1.29 405.48 1.28 405.53 1.27 405.57 C0 412.28 1.36 419.22 5.07 424.95 C5.09
						 424.98 5.1 425 5.11 425.03 L5.11 425.03 ZM20.88 430.57 L20.88 430.57 C17.39 429.42 14.27 427.38 11.81 424.65
						 L21.31 419.65 L21.32 419.65 C22.11 420.17 22.97 420.6 23.88 420.9 L20.88 430.57 ZM22 410.53 L22 410.53 C22
						 408.58 23.04 406.78 24.73 405.81 C26.41 404.84 28.49 404.84 30.18 405.81 C31.87 406.78 32.9 408.58 32.9
						 410.53 C32.9 412.48 31.86 414.28 30.18 415.25 C28.49 416.22 26.41 416.22 24.72 415.24 C23.04 414.27 22 412.47
						 22 410.52 L22 410.53 ZM27.45 431.62 C27.08 431.62 26.73 431.58 26.37 431.56 L29.56 421.3 L29.56 421.3 C30.5
						 421.11 31.41 420.8 32.26 420.37 L36.97 429.32 C34.03 430.83 30.76 431.62 27.45 431.62 L27.45 431.62 ZM41.57
						 426.15 L36.56 416.65 C37.1 415.85 37.52 414.99 37.83 414.09 L47.49 417.08 L47.49 417.08 C46.34 420.57 44.3
						 423.7 41.57 426.16 L41.57 426.15 ZM46.25 401 C47.94 404.27 48.71 407.93 48.49 411.6 L38.23 408.42 C38.04
						 407.48 37.73 406.56 37.3 405.71 L46.25 401 ZM34.01 390.48 C37.5 391.63 40.63 393.67 43.08 396.4 L33.59 401.41
						 C32.79 400.87 31.93 400.45 31.02 400.14 L34.01 390.48 ZM27.44 389.42 C27.81 389.42 28.16 389.46 28.52 389.47
						 L25.34 399.74 L25.34 399.74 C24.4 399.92 23.49 400.23 22.63 400.66 L17.93 391.71 C20.88 390.2 24.14 389.42
						 27.45 389.42 L27.44 389.42 ZM13.32 394.88 L18.33 404.38 L18.33 404.38 C17.8 405.18 17.37 406.04 17.06 406.95
						 L7.4 403.95 C8.56 400.46 10.6 397.34 13.33 394.88 L13.32 394.88 ZM6.4 409.44 L16.67 412.63 C16.85 413.57
						 17.16 414.48 17.59 415.34 L8.65 420.05 L8.65 420.05 C6.96 416.78 6.19 413.12 6.4 409.44 L6.4 409.44 Z"
					class="st9"/>
		</g>
	</g>
</svg>
