<?xml version="1.0" encoding="UTF-8" standalone="no"?>
<!DOCTYPE svg PUBLIC "-//W3C//DTD SVG 1.1//EN" "http://www.w3.org/Graphics/SVG/1.1/DTD/svg11.dtd">
<!-- Generiert durch Microsoft Visio, SVG Export mqtt server health logo.svg Page-1 -->
<svg xmlns="http://www.w3.org/2000/svg" xmlns:xlink="http://www.w3.org/1999/xlink" xmlns:ev="http://www.w3.org/2001/xml-events"
		xmlns:v="http://schemas.microsoft.com/visio/2003/SVGExtensions/" width="16.0354in" height="11.6929in"
		viewBox="0 0 1154.55 841.89" xml:space="preserve" color-interpolation-filters="sRGB" class="st10">
	<v:documentProperties v:langID="1031" v:metric="true" v:viewMarkup="false">
		<v:userDefs>
			<v:ud v:nameU="msvNoAutoConnect" v:val="VT0(1):26"/>
		</v:userDefs>
	</v:documentProperties>

	<style type="text/css">
	<![CDATA[
		.st1 {fill:#ffffff;stroke:#000000;stroke-linecap:round;stroke-linejoin:round;stroke-width:4.5}
		.st2 {stroke:#000000;stroke-linecap:round;stroke-linejoin:round;stroke-width:4.5}
		.st3 {fill:#000000;stroke:none;stroke-linecap:butt;stroke-width:1}
		.st4 {fill:#ffffff;stroke:#000000;stroke-linecap:round;stroke-linejoin:round;stroke-width:3}
		.st5 {fill:#ffc000;stroke:none;stroke-linecap:butt;stroke-width:0.844138}
		.st6 {fill:#ffc000;stroke:none;stroke-linecap:butt;stroke-width:0.841813}
		.st7 {fill:#ffc000;stroke:none;stroke-linecap:butt;stroke-width:1}
		.st8 {fill:none;stroke:none;stroke-linecap:round;stroke-linejoin:round;stroke-width:0.75}
		.st9 {fill:#000000;font-family:Bread Coffee Demo;font-size:6.66666em}
		.st10 {fill:none;fill-rule:evenodd;font-size:12px;overflow:visible;stroke-linecap:square;stroke-miterlimit:3}
	]]>
	</style>

	<g v:mID="0" v:index="1" v:groupContext="foregroundPage">
		<title>Zeichenblatt-1</title>
		<v:pageProperties v:drawingScale="0.0393701" v:pageScale="0.0393701" v:drawingUnits="24" v:shadowOffsetX="8.50394"
				v:shadowOffsetY="-8.50394"/>
		<g id="group495-1" transform="translate(41.1663,-198.425)" v:mID="495" v:groupContext="group">
			<title>Tabelle.495</title>
			<g id="shape1-2" v:mID="1" v:groupContext="shape" transform="translate(7.99361E-15,-5.99834)">
				<title>Tabelle.1</title>
				<rect x="0" y="657.638" width="141.732" height="184.252" class="st1"/>
			</g>
			<g id="shape2-4" v:mID="2" v:groupContext="shape" transform="translate(595.306,240.585) rotate(45)">
				<title>Tabelle.2</title>
				<path d="M0 841.89 L8.48 841.89" class="st2"/>
			</g>
			<g id="shape3-7" v:mID="3" v:groupContext="shape" transform="translate(5.99832,-1.7967E-05)">
				<title>Tabelle.3</title>
				<path d="M0 841.89 L18.51 841.89 L24.51 835.89" class="st2"/>
			</g>
			<g id="shape4-10" v:mID="4" v:groupContext="shape" transform="translate(706.532,240.585) rotate(45)">
				<title>Tabelle.4</title>
				<path d="M0 841.89 L8.48 841.89" class="st2"/>
			</g>
			<g id="shape5-13" v:mID="5" v:groupContext="shape" transform="translate(117.224,-1.51548E-07)">
				<title>Tabelle.5</title>
				<path d="M0 841.89 L18.51 841.89 L24.51 835.89" class="st2"/>
			</g>
			<g id="shape7-16" v:mID="7" v:groupContext="shape" transform="translate(85.0394,-108.046)">
				<title>Tabelle.7</title>
				<rect x="0" y="768.189" width="48.189" height="73.7008" class="st1"/>
			</g>
			<g id="shape8-18" v:mID="8" v:groupContext="shape" transform="translate(90.7087,-171.825)">
				<title>Tabelle.8</title>
				<path d="M0 841.89 L14.17 841.89" class="st2"/>
			</g>
			<g id="shape11-21" v:mID="11" v:groupContext="shape" transform="translate(113.386,-171.825)">
				<title>Tabelle.11</title>
				<path d="M0 841.89 L14.17 841.89" class="st2"/>
			</g>
			<g id="shape12-24" v:mID="12" v:groupContext="shape" transform="translate(90.7087,-159.069)">
				<title>Tabelle.12</title>
				<path d="M0 841.89 L14.17 841.89" class="st2"/>
			</g>
			<g id="shape13-27" v:mID="13" v:groupContext="shape" transform="translate(90.7087,-146.313)">
				<title>Tabelle.13</title>
				<path d="M0 841.89 L14.17 841.89" class="st2"/>
			</g>
			<g id="shape14-30" v:mID="14" v:groupContext="shape" transform="translate(113.386,-159.069)">
				<title>Tabelle.14</title>
				<path d="M0 841.89 L14.17 841.89" class="st2"/>
			</g>
			<g id="shape15-33" v:mID="15" v:groupContext="shape" transform="translate(113.386,-146.313)">
				<title>Tabelle.15</title>
				<path d="M0 841.89 L14.17 841.89" class="st2"/>
			</g>
			<g id="shape16-36" v:mID="16" v:groupContext="shape" transform="translate(90.7087,-133.557)">
				<title>Tabelle.16</title>
				<path d="M0 841.89 L14.17 841.89" class="st2"/>
			</g>
			<g id="shape17-39" v:mID="17" v:groupContext="shape" transform="translate(113.386,-133.557)">
				<title>Tabelle.17</title>
				<path d="M0 841.89 L14.17 841.89" class="st2"/>
			</g>
			<g id="shape18-42" v:mID="18" v:groupContext="shape" transform="translate(90.7087,-120.801)">
				<title>Tabelle.18</title>
				<path d="M0 841.89 L14.17 841.89" class="st2"/>
			</g>
			<g id="shape19-45" v:mID="19" v:groupContext="shape" transform="translate(113.386,-120.801)">
				<title>Tabelle.19</title>
				<path d="M0 841.89 L14.17 841.89" class="st2"/>
			</g>
			<g id="shape20-48" v:mID="20" v:groupContext="shape" transform="translate(85.0394,-88.203)">
				<title>Tabelle.20</title>
				<path d="M0 841.89 L48.19 841.89" class="st2"/>
			</g>
			<g id="shape21-51" v:mID="21" v:groupContext="shape" transform="translate(-756.85,765.025) rotate(-90)">
				<title>Tabelle.21</title>
				<path d="M0 841.89 L11.34 841.89" class="st2"/>
			</g>
			<g id="shape22-54" v:mID="22" v:groupContext="shape" transform="translate(85.0394,-68.3605)">
				<title>Tabelle.22</title>
				<path d="M0 841.89 L48.19 841.89" class="st2"/>
			</g>
			<g id="shape23-57" v:mID="23" v:groupContext="shape" transform="translate(-756.85,784.868) rotate(-90)">
				<title>Tabelle.23</title>
				<path d="M0 841.89 L11.34 841.89" class="st2"/>
			</g>
			<g id="shape25-60" v:mID="25" v:groupContext="shape" transform="translate(85.0394,-48.518)">
				<title>Tabelle.25</title>
				<path d="M0 841.89 L48.19 841.89" class="st2"/>
			</g>
			<g id="shape26-63" v:mID="26" v:groupContext="shape" transform="translate(-756.85,804.71) rotate(-90)">
				<title>Tabelle.26</title>
				<path d="M0 841.89 L11.34 841.89" class="st2"/>
			</g>
			<g id="shape28-66" v:mID="28" v:groupContext="shape" transform="translate(8.50393,-108.046)">
				<title>Tabelle.28</title>
				<rect x="0" y="771.024" width="25.5118" height="70.8661" class="st1"/>
			</g>
			<g id="shape52-68" v:mID="52" v:groupContext="shape" transform="translate(16.7244,-113.927)">
				<title>Tabelle.52</title>
				<ellipse cx="4.03937" cy="837.85" rx="4.03937" ry="4.03937" class="st1"/>
			</g>
			<g id="shape53-70" v:mID="53" v:groupContext="shape" transform="translate(45.3543,-108.046)">
				<title>Tabelle.53</title>
				<rect x="0" y="771.024" width="25.5118" height="70.8661" class="st1"/>
			</g>
			<g id="shape54-72" v:mID="54" v:groupContext="shape" transform="translate(53.5748,-114.14)">
				<title>Tabelle.54</title>
				<ellipse cx="4.03937" cy="837.85" rx="4.03937" ry="4.03937" class="st1"/>
			</g>
			<g id="shape125-74" v:mID="125" v:groupContext="shape" transform="translate(14.1213,-37.1794)">
				<title>Tabelle.125</title>
				<path d="M4.76 827.07 C4.79 827.12 4.83 827.16 4.86 827.21 C11.71 838.24 28.05 841.89 38.98 834.38 L38.98 834.38
							 C39.11 834.33 39.22 834.25 39.33 834.17 L39.44 834.1 L39.49 834.05 L39.49 834.05 C44.89 830.37 48.62
							 824.71 49.87 818.3 C49.87 818.26 49.89 818.22 49.89 818.18 C51.08 811.94 49.81 805.48 46.36 800.15 C46.3
							 800 46.22 799.87 46.11 799.74 L46.08 799.69 C46.06 799.66 46.04 799.63 46.01 799.61 C42.33 794.22 36.68
							 790.49 30.28 789.24 C30.23 789.24 30.19 789.22 30.14 789.22 L30.14 789.22 C23.91 788.03 17.45 789.3
							 12.12 792.75 C11.97 792.81 11.83 792.89 11.71 793 L11.67 793.02 C11.64 793.05 11.6 793.07 11.57 793.09
							 L11.57 793.09 C6.18 796.77 2.46 802.43 1.2 808.84 C1.2 808.88 1.19 808.92 1.19 808.96 C0 815.2 1.27
							 821.66 4.72 827 C4.74 827.02 4.74 827.05 4.76 827.07 L4.76 827.07 ZM19.43 832.23 L19.43 832.23 C16.19
							 831.16 13.28 829.26 10.99 826.72 L19.84 822.06 L19.84 822.06 C20.58 822.55 21.38 822.94 22.22 823.23
							 L19.43 832.23 ZM20.48 813.58 L20.48 813.58 C20.48 811.77 21.44 810.09 23.01 809.18 C24.58 808.28 26.52
							 808.28 28.09 809.18 C29.65 810.09 30.62 811.77 30.62 813.58 C30.62 815.39 29.65 817.06 28.08 817.97
							 C26.51 818.87 24.58 818.87 23.01 817.96 C21.44 817.06 20.48 815.38 20.48 813.57 L20.48 813.58 ZM25.55
							 833.2 C25.2 833.2 24.88 833.17 24.54 833.15 L27.51 823.6 L27.51 823.6 C28.38 823.42 29.23 823.13 30.03
							 822.74 L34.41 831.06 C31.67 832.47 28.63 833.2 25.55 833.2 L25.55 833.2 ZM38.68 828.12 L34.03 819.27
							 C34.52 818.53 34.92 817.73 35.21 816.89 L44.2 819.67 L44.2 819.68 C43.13 822.92 41.23 825.84 38.68 828.12
							 L38.68 828.12 ZM43.04 804.71 C44.61 807.75 45.33 811.16 45.13 814.57 L35.57 811.61 C35.4 810.73 35.11
							 809.89 34.71 809.09 L43.04 804.71 ZM31.65 794.92 C34.9 795.99 37.81 797.89 40.1 800.43 L31.26 805.09
							 C30.52 804.59 29.71 804.19 28.87 803.91 L31.65 794.92 ZM25.54 793.93 C25.88 793.93 26.21 793.96 26.54
							 793.98 L23.58 803.53 L23.58 803.53 C22.7 803.71 21.86 804 21.06 804.39 L16.68 796.06 C19.43 794.66 22.46
							 793.93 25.54 793.93 L25.54 793.93 ZM12.4 799.01 L17.06 807.86 L17.06 807.86 C16.56 808.6 16.16 809.4
							 15.88 810.24 L6.89 807.45 C7.96 804.21 9.86 801.3 12.41 799.01 L12.4 799.01 ZM5.96 812.57 L15.51 815.53
							 C15.68 816.4 15.97 817.25 16.37 818.05 L8.05 822.43 L8.05 822.43 C6.48 819.39 5.76 815.98 5.96 812.57
							 L5.96 812.57 Z" class="st3"/>
			</g>
			<g id="shape126-76" v:mID="126" v:groupContext="shape" transform="translate(17.0079,-11.1007)">
				<title>Tabelle.126</title>
				<rect x="0" y="835.654" width="13.3228" height="6.23622" class="st4"/>
			</g>
			<g id="shape127-78" v:mID="127" v:groupContext="shape" transform="translate(35.4331,-11.1007)">
				<title>Tabelle.127</title>
				<rect x="0" y="835.654" width="13.3228" height="6.23622" class="st4"/>
			</g>
		</g>
		<g id="group496-80" transform="translate(367.755,-235.223) rotate(20.6)" v:mID="496" v:groupContext="group">
			<title>Tabelle.496</title>
			<g id="shape457-81" v:mID="457" v:groupContext="shape" transform="translate(365.029,53.2373) rotate(21.39)">
				<title>Tabelle.457</title>
				<ellipse cx="10.9569" cy="830.958" rx="10.9569" ry="10.9316" class="st5"/>
			</g>
			<g id="shape458-83" v:mID="458" v:groupContext="shape" transform="translate(397.267,50.3076) rotate(21.39)">
				<title>Tabelle.458</title>
				<ellipse cx="12.2569" cy="829.658" rx="12.2569" ry="12.2316" class="st5"/>
			</g>
			<g id="shape459-85" v:mID="459" v:groupContext="shape" transform="translate(437.94,35.9626) rotate(21.39)">
				<title>Tabelle.459</title>
				<ellipse cx="14.8737" cy="827.058" rx="14.8737" ry="14.8315" class="st5"/>
			</g>
			<g id="shape460-87" v:mID="460" v:groupContext="shape" transform="translate(471.605,5.58884) rotate(21.39)">
				<title>Tabelle.460</title>
				<ellipse cx="16.1737" cy="825.758" rx="16.1737" ry="16.1315" class="st5"/>
			</g>
			<g id="shape461-89" v:mID="461" v:groupContext="shape" transform="translate(468.044,-46.5541) rotate(21.39)">
				<title>Tabelle.461</title>
				<ellipse cx="18.7821" cy="823.15" rx="18.7821" ry="18.7399" class="st5"/>
			</g>
			<g id="shape462-91" v:mID="462" v:groupContext="shape" transform="translate(470.54,-238.247) rotate(21.39)">
				<title>Tabelle.462</title>
				<ellipse cx="11.8517" cy="830.072" rx="11.8517" ry="11.8179" class="st5"/>
			</g>
			<g id="shape463-93" v:mID="463" v:groupContext="shape" transform="translate(438.683,-200.052) rotate(21.39)">
				<title>Tabelle.463</title>
				<ellipse cx="14.8906" cy="827.041" rx="14.8906" ry="14.8484" class="st5"/>
			</g>
			<g id="shape464-95" v:mID="464" v:groupContext="shape" transform="translate(429.47,-157.091) rotate(21.39)">
				<title>Tabelle.464</title>
				<ellipse cx="16.41" cy="825.522" rx="16.41" ry="16.3678" class="st5"/>
			</g>
			<g id="shape465-97" v:mID="465" v:groupContext="shape" transform="translate(444.204,-105.73) rotate(21.39)">
				<title>Tabelle.465</title>
				<ellipse cx="19.4489" cy="822.491" rx="19.4489" ry="19.3983" class="st5"/>
			</g>
			<g id="shape466-99" v:mID="466" v:groupContext="shape" transform="translate(326.517,27.8346) rotate(21.39)">
				<title>Tabelle.466</title>
				<ellipse cx="10.1381" cy="831.769" rx="10.1381" ry="10.1212" class="st5"/>
			</g>
			<g id="shape467-101" v:mID="467" v:groupContext="shape" transform="translate(360.725,24.6886) rotate(21.39)">
				<title>Tabelle.467</title>
				<ellipse cx="11.3452" cy="830.57" rx="11.3452" ry="11.3199" class="st5"/>
			</g>
			<g id="shape468-103" v:mID="468" v:groupContext="shape" transform="translate(393.753,10.9236) rotate(21.39)">
				<title>Tabelle.468</title>
				<ellipse cx="13.7679" cy="828.156" rx="13.7679" ry="13.7341" class="st5"/>
			</g>
			<g id="shape469-105" v:mID="469" v:groupContext="shape" transform="translate(423.835,-20.0607) rotate(21.39)">
				<title>Tabelle.469</title>
				<ellipse cx="14.975" cy="826.957" rx="14.975" ry="14.9328" class="st5"/>
			</g>
			<g id="shape470-107" v:mID="470" v:groupContext="shape" transform="translate(414.387,-67.585) rotate(21.39)">
				<title>Tabelle.470</title>
				<ellipse cx="17.3892" cy="824.543" rx="17.3892" ry="17.347" class="st5"/>
			</g>
			<g id="shape471-109" v:mID="471" v:groupContext="shape" transform="translate(425.622,-233.459) rotate(21.39)">
				<title>Tabelle.471</title>
				<ellipse cx="10.5939" cy="831.321" rx="10.5939" ry="10.5686" class="st5"/>
			</g>
			<g id="shape472-111" v:mID="472" v:groupContext="shape" transform="translate(388.995,-209.182) rotate(21.2914)">
				<title>Tabelle.472</title>
				<ellipse cx="13.2754" cy="828.648" rx="13.2754" ry="13.2417" class="st6"/>
			</g>
			<g id="shape473-113" v:mID="473" v:groupContext="shape" transform="translate(387.095,-163.643) rotate(21.39)">
				<title>Tabelle.473</title>
				<ellipse cx="14.6711" cy="827.252" rx="14.6711" ry="14.6374" class="st5"/>
			</g>
			<g id="shape474-115" v:mID="474" v:groupContext="shape" transform="translate(396.917,-115.97) rotate(21.39)">
				<title>Tabelle.474</title>
				<ellipse cx="17.3892" cy="824.543" rx="17.3892" ry="17.347" class="st5"/>
			</g>
			<g id="shape475-117" v:mID="475" v:groupContext="shape" transform="translate(304.598,-1.15562) rotate(21.39)">
				<title>Tabelle.475</title>
				<ellipse cx="8.29788" cy="833.609" rx="8.29788" ry="8.28099" class="st5"/>
			</g>
			<g id="shape476-119" v:mID="476" v:groupContext="shape" transform="translate(336.55,0.048448) rotate(21.39)">
				<title>Tabelle.476</title>
				<ellipse cx="9.29396" cy="832.621" rx="9.29396" ry="9.26863" class="st5"/>
			</g>
			<g id="shape477-121" v:mID="477" v:groupContext="shape" transform="translate(360.496,-13.0824) rotate(21.39)">
				<title>Tabelle.477</title>
				<ellipse cx="11.2692" cy="830.646" rx="11.2692" ry="11.2439" class="st5"/>
			</g>
			<g id="shape478-123" v:mID="478" v:groupContext="shape" transform="translate(384.325,-40.6048) rotate(21.2914)">
				<title>Tabelle.478</title>
				<ellipse cx="12.2231" cy="829.7" rx="12.2231" ry="12.1895" class="st6"/>
			</g>
			<g id="shape479-125" v:mID="479" v:groupContext="shape" transform="translate(376.477,-77.7869) rotate(21.39)">
				<title>Tabelle.479</title>
				<ellipse cx="14.2322" cy="827.691" rx="14.2322" ry="14.1984" class="st5"/>
			</g>
			<g id="shape480-127" v:mID="480" v:groupContext="shape" transform="translate(360.113,-187.731) rotate(21.39)">
				<title>Tabelle.480</title>
				<ellipse cx="10.8978" cy="831.017" rx="10.8978" ry="10.8725" class="st5"/>
			</g>
			<g id="shape481-129" v:mID="481" v:groupContext="shape" transform="translate(353.065,-153.505) rotate(21.39)">
				<title>Tabelle.481</title>
				<ellipse cx="12.0121" cy="829.911" rx="12.0121" ry="11.9783" class="st5"/>
			</g>
			<g id="shape482-131" v:mID="482" v:groupContext="shape" transform="translate(360.327,-114.599) rotate(21.39)">
				<title>Tabelle.482</title>
				<ellipse cx="14.2322" cy="827.691" rx="14.2322" ry="14.1984" class="st5"/>
			</g>
			<g id="shape483-133" v:mID="483" v:groupContext="shape" transform="translate(478.014,-190.46) rotate(21.39)">
				<title>Tabelle.483</title>
				<ellipse cx="8.55112" cy="833.364" rx="8.55112" ry="8.52579" class="st5"/>
			</g>
		</g>
		<g id="group582-135" transform="translate(537.373,-380.419) rotate(15)" v:mID="582" v:groupContext="group">
			<title>Tabelle.582</title>
			<g id="shape537-136" v:mID="537" v:groupContext="shape" transform="translate(2.95763E-13,-104.402)">
				<title>Tabelle.537</title>
				<path d="M54.79 841.89 C56.75 838.5 59.25 835.11 62.28 832.07 C68.35 826.01 75.49 822.08 82.99 820.29 C67.99 798.7
							 39.62 767.29 18.02 800.31 C0 827.61 30.16 837.96 54.79 841.89 L54.79 841.89 Z" class="st3"/>
			</g>
			<g id="shape538-138" v:mID="538" v:groupContext="shape" transform="translate(104.402,-3.41061E-13)">
				<title>Tabelle.538</title>
				<path d="M21.6 758.9 C19.81 766.4 15.88 773.54 9.82 779.6 C6.78 782.64 3.57 785.14 0 787.1 C3.93 811.73 14.1 841.89
							 41.58 823.86 C74.6 802.27 43.19 773.89 21.59 758.9 L21.6 758.9 Z" class="st3"/>
			</g>
			<g id="shape539-140" v:mID="539" v:groupContext="shape" transform="translate(43.368,-43.3667)">
				<title>Tabelle.539</title>
				<path d="M133.31 751.58 C126.71 744.98 116.54 743.2 107.97 747.12 L101.9 749.98 C100.83 747.84 99.4 745.87 97.62
							 744.09 C95.83 742.3 93.87 741.06 91.73 739.81 L94.59 733.74 C98.69 725.17 96.91 715 90.12 708.4 C87.63
							 705.9 83.7 705.9 81.38 708.4 C79.06 710.89 78.88 714.82 81.38 717.14 C84.41 720.18 85.13 724.64 83.34
							 728.39 L79.42 736.77 C73.35 736.95 67.46 739.27 62.82 743.91 C56.39 750.34 54.43 759.44 56.57 767.83
							 C46.4 765.15 34.09 768.36 25.16 777.28 C19.99 782.46 16.77 788.53 15.53 794.95 C10.35 795.49 5.18 797.63
							 0 801.2 L40.69 841.89 C44.26 836.71 46.4 831.72 46.94 826.36 C53.18 825.11 59.43 821.9 64.61 816.73
							 C73.53 807.8 76.74 795.49 73.89 785.32 C82.1 787.64 91.2 785.5 97.8 779.07 C102.44 774.43 104.76 768.54
							 104.94 762.47 L113.33 758.55 C117.07 756.76 121.71 757.48 124.57 760.51 C127.07 763.01 130.99 763.01
							 133.32 760.51 C135.63 758.01 135.63 754.08 133.31 751.58 L133.31 751.58 Z" class="st3"/>
			</g>
			<g id="shape540-142" v:mID="540" v:groupContext="shape" transform="translate(26.4121,-26.4127)">
				<title>Tabelle.540</title>
				<path d="M3.39 795.84 C2.32 796.92 1.07 798.34 0 799.59 L42.3 841.89 C43.55 840.82 44.8 839.75 46.04 838.5 C48.19
							 836.36 50.33 834.04 52.29 831.9 L9.99 789.78 C7.67 791.56 5.53 793.7 3.39 795.85 L3.39 795.84 Z"
						class="st7"/>
			</g>
			<g id="shape541-144" v:mID="541" v:groupContext="shape" transform="translate(14.6336,-14.4561)">
				<title>Tabelle.541</title>
				<path d="M0 808.34 L33.55 841.89 C38.19 840.1 42.65 837.79 46.76 835.29 L6.6 795.13 C4.11 799.24 1.78 803.7 0 808.34
							 L0 808.34 Z" class="st7"/>
			</g>
			<g id="shape542-146" v:mID="542" v:groupContext="shape" transform="translate(7.85189,-7.85252)">
				<title>Tabelle.542</title>
				<path d="M4.28 837.61 C8.57 841.89 19.1 841.53 30.87 838.32 L3.57 811.01 C0.18 822.79 0 833.5 4.28 837.61 L4.28 837.61
							 Z" class="st3"/>
			</g>
		</g>
		<g id="shape583-148" v:mID="583" v:groupContext="shape" transform="translate(652.175,-420.633) rotate(21.39)">
			<title>Tabelle.583</title>
			<ellipse cx="8.29788" cy="833.609" rx="8.29788" ry="8.28099" class="st5"/>
		</g>
		<g id="shape584-150" v:mID="584" v:groupContext="shape" transform="translate(234.709,-201.653)">
			<title>Tabelle.584</title>
			<desc>MQTT Server Health</desc>
			<v:textBlock v:margins="rect(4,4,4,4)" v:tabSpace="42.5197"/>
			<v:textRect cx="412.441" cy="796.732" width="824.89" height="90.3155"/>
			<rect x="0" y="751.574" width="824.882" height="90.3155" class="st8"/>
			<text x="28.59" y="820.73" class="st9" v:langID="1031"><v:paragraph v:horizAlign="1"/><v:tabList/>MQTT Server Health</text>		</g>
	</g>
</svg>
